<svg xmlns="http://www.w3.org/2000/svg" xmlns:xlink="http://www.w3.org/1999/xlink" width="1920" zoomAndPan="magnify" viewBox="0 0 1440 809.999993" height="1080" preserveAspectRatio="xMidYMid meet" version="1.2"><defs><clipPath id="cad001e8a6"><path d="M 380 224 L 475 224 L 475 331 L 380 331 Z M 380 224 "/></clipPath><clipPath id="4afba2fa3c"><path d="M 498.027344 284.089844 L 380.808594 330.550781 L 357.210938 271.011719 L 474.429688 224.550781 Z M 498.027344 284.089844 "/></clipPath><clipPath id="25ce6cefa6"><path d="M 470.492188 295.003906 L 380.890625 330.519531 L 384.828125 260.0625 L 474.429688 224.550781 Z M 470.492188 295.003906 "/></clipPath><clipPath id="5509f097d7"><path d="M 317.320312 284.328125 L 380.347656 284.328125 L 380.347656 542 L 317.320312 542 Z M 317.320312 284.328125 "/></clipPath><clipPath id="3a0256a9d9"><path d="M 380.347656 319.730469 L 380.347656 541.949219 L 317.320312 506.542969 L 317.320312 284.328125 Z M 380.347656 319.730469 "/></clipPath><clipPath id="7e84452ee9"><path d="M 318 256 L 394 256 L 394 336 L 318 336 Z M 318 256 "/></clipPath><clipPath id="f658b611be"><path d="M 418.273438 321.621094 L 343.238281 350.074219 L 318.507812 284.855469 L 393.542969 256.402344 Z M 418.273438 321.621094 "/></clipPath><clipPath id="019a753ff8"><path d="M 418.273438 321.621094 L 343.238281 350.074219 L 318.507812 284.855469 L 393.542969 256.402344 Z M 418.273438 321.621094 "/></clipPath><clipPath id="869f2c423e"><path d="M 317.324219 500.320312 L 564.132812 500.320312 L 564.132812 541.945312 L 317.324219 541.945312 Z M 317.324219 500.320312 "/></clipPath><clipPath id="ce161b3a65"><path d="M 573.589844 249.675781 L 636.617188 249.675781 L 636.617188 507.453125 L 573.589844 507.453125 Z M 573.589844 249.675781 "/></clipPath><clipPath id="b876636133"><path d="M 636.617188 285.082031 L 636.617188 507.296875 L 573.589844 471.894531 L 573.589844 249.675781 Z M 636.617188 285.082031 "/></clipPath><clipPath id="f26c55cff6"><path d="M 573.597656 465.671875 L 636.625 465.671875 L 636.625 541.945312 L 573.597656 541.945312 Z M 573.597656 465.671875 "/></clipPath><clipPath id="176f227084"><path d="M 498.03125 378.484375 L 585.71875 378.484375 L 585.71875 428.753906 L 498.03125 428.753906 Z M 498.03125 378.484375 "/></clipPath><clipPath id="1f5d05171b"><path d="M 411.214844 365.214844 L 429.402344 365.214844 L 429.402344 383.710938 L 411.214844 383.710938 Z M 411.214844 365.214844 "/></clipPath><clipPath id="06c238032f"><path d="M 429.402344 371.738281 L 450.117188 371.738281 L 450.117188 377.632812 L 429.402344 377.632812 Z M 429.402344 371.738281 "/></clipPath><clipPath id="3a725e1d27"><path d="M 446 371 L 464 371 L 464 389 L 446 389 Z M 446 371 "/></clipPath><clipPath id="2435ab90ad"><path d="M 450.128906 371.738281 L 463.40625 384.292969 L 459.355469 388.574219 L 446.082031 376.019531 Z M 450.128906 371.738281 "/></clipPath><clipPath id="c5181b3465"><path d="M 459.363281 382.683594 L 489.125 382.683594 L 489.125 388.574219 L 459.363281 388.574219 Z M 459.363281 382.683594 "/></clipPath><clipPath id="9658165288"><path d="M 426.492188 394.605469 L 444.679688 394.605469 L 444.679688 413.105469 L 426.492188 413.105469 Z M 426.492188 394.605469 "/></clipPath><clipPath id="c793233fa8"><path d="M 444.679688 400.90625 L 494.761719 400.90625 L 494.761719 406.800781 L 444.679688 406.800781 Z M 444.679688 400.90625 "/></clipPath><clipPath id="a5bb9b1d0b"><path d="M 400.238281 423.527344 L 418.429688 423.527344 L 418.429688 442 L 400.238281 442 Z M 400.238281 423.527344 "/></clipPath><clipPath id="2c5e39c847"><path d="M 444.476562 419.703125 L 495.957031 419.703125 L 495.957031 425.59375 L 444.476562 425.59375 Z M 444.476562 419.703125 "/></clipPath><clipPath id="f66615452c"><path d="M 435 419 L 450 419 L 450 436 L 435 436 Z M 435 419 "/></clipPath><clipPath id="cc45e0eccf"><path d="M 435.03125 432.195312 L 444.402344 419.648438 L 449.121094 423.175781 L 439.75 435.71875 Z M 435.03125 432.195312 "/></clipPath><clipPath id="2c6811626e"><path d="M 418.429688 429.832031 L 439.761719 429.832031 L 439.761719 435.722656 L 418.429688 435.722656 Z M 418.429688 429.832031 "/></clipPath></defs><g id="87650ad098"><g clip-rule="nonzero" clip-path="url(#cad001e8a6)"><g clip-rule="nonzero" clip-path="url(#4afba2fa3c)"><g clip-rule="nonzero" clip-path="url(#25ce6cefa6)"><path style=" stroke:none;fill-rule:nonzero;fill:#ffffff;fill-opacity:1;" d="M 498.027344 284.089844 L 380.808594 330.550781 L 357.210938 271.011719 L 474.429688 224.550781 Z M 498.027344 284.089844 "/></g></g></g><g clip-rule="nonzero" clip-path="url(#5509f097d7)"><g clip-rule="nonzero" clip-path="url(#3a0256a9d9)"><path style=" stroke:none;fill-rule:nonzero;fill:#ffffff;fill-opacity:1;" d="M 380.347656 284.328125 L 380.347656 541.855469 L 317.320312 541.855469 L 317.320312 284.328125 Z M 380.347656 284.328125 "/></g></g><g clip-rule="nonzero" clip-path="url(#7e84452ee9)"><g clip-rule="nonzero" clip-path="url(#f658b611be)"><g clip-rule="nonzero" clip-path="url(#019a753ff8)"><path style=" stroke:none;fill-rule:nonzero;fill:#ffffff;fill-opacity:1;" d="M 380.757812 335.847656 L 393.625 256.675781 L 318.628906 285.117188 Z M 380.757812 335.847656 "/></g></g></g><g clip-rule="nonzero" clip-path="url(#869f2c423e)"><path style=" stroke:none;fill-rule:nonzero;fill:#ffffff;fill-opacity:1;" d="M 317.324219 500.320312 L 564.148438 500.320312 L 564.148438 541.945312 L 317.324219 541.945312 Z M 317.324219 500.320312 "/></g><g clip-rule="nonzero" clip-path="url(#ce161b3a65)"><g clip-rule="nonzero" clip-path="url(#b876636133)"><path style=" stroke:none;fill-rule:nonzero;fill:#ffffff;fill-opacity:1;" d="M 636.617188 249.675781 L 636.617188 507.207031 L 573.589844 507.207031 L 573.589844 249.675781 Z M 636.617188 249.675781 "/></g></g><g clip-rule="nonzero" clip-path="url(#f26c55cff6)"><path style=" stroke:none;fill-rule:nonzero;fill:#ffffff;fill-opacity:1;" d="M 573.597656 465.671875 L 636.625 465.671875 L 636.625 541.996094 L 573.597656 541.996094 Z M 573.597656 465.671875 "/></g><g clip-rule="nonzero" clip-path="url(#176f227084)"><path style=" stroke:none;fill-rule:nonzero;fill:#ffffff;fill-opacity:1;" d="M 498.03125 378.484375 L 585.804688 378.484375 L 585.804688 428.753906 L 498.03125 428.753906 Z M 498.03125 378.484375 "/></g><g clip-rule="nonzero" clip-path="url(#1f5d05171b)"><path style=" stroke:none;fill-rule:nonzero;fill:#ffffff;fill-opacity:1;" d="M 411.214844 365.214844 L 429.402344 365.214844 L 429.402344 383.6875 L 411.214844 383.6875 Z M 411.214844 365.214844 "/></g><g clip-rule="nonzero" clip-path="url(#06c238032f)"><path style=" stroke:none;fill-rule:nonzero;fill:#ffffff;fill-opacity:1;" d="M 429.402344 371.738281 L 450.117188 371.738281 L 450.117188 377.632812 L 429.402344 377.632812 Z M 429.402344 371.738281 "/></g><g clip-rule="nonzero" clip-path="url(#3a725e1d27)"><g clip-rule="nonzero" clip-path="url(#2435ab90ad)"><path style=" stroke:none;fill-rule:nonzero;fill:#ffffff;fill-opacity:1;" d="M 450.128906 371.738281 L 463.40625 384.296875 L 459.359375 388.578125 L 446.082031 376.019531 Z M 450.128906 371.738281 "/></g></g><g clip-rule="nonzero" clip-path="url(#c5181b3465)"><path style=" stroke:none;fill-rule:nonzero;fill:#ffffff;fill-opacity:1;" d="M 459.363281 382.683594 L 489.125 382.683594 L 489.125 388.574219 L 459.363281 388.574219 Z M 459.363281 382.683594 "/></g><g clip-rule="nonzero" clip-path="url(#9658165288)"><path style=" stroke:none;fill-rule:nonzero;fill:#ffffff;fill-opacity:1;" d="M 426.492188 394.605469 L 444.679688 394.605469 L 444.679688 413.078125 L 426.492188 413.078125 Z M 426.492188 394.605469 "/></g><g clip-rule="nonzero" clip-path="url(#c793233fa8)"><path style=" stroke:none;fill-rule:nonzero;fill:#ffffff;fill-opacity:1;" d="M 444.679688 400.90625 L 494.765625 400.90625 L 494.765625 406.800781 L 444.679688 406.800781 Z M 444.679688 400.90625 "/></g><g clip-rule="nonzero" clip-path="url(#a5bb9b1d0b)"><path style=" stroke:none;fill-rule:nonzero;fill:#ffffff;fill-opacity:1;" d="M 400.238281 423.527344 L 418.429688 423.527344 L 418.429688 442 L 400.238281 442 Z M 400.238281 423.527344 "/></g><g clip-rule="nonzero" clip-path="url(#2c5e39c847)"><path style=" stroke:none;fill-rule:nonzero;fill:#ffffff;fill-opacity:1;" d="M 444.476562 419.703125 L 495.964844 419.703125 L 495.964844 425.59375 L 444.476562 425.59375 Z M 444.476562 419.703125 "/></g><g clip-rule="nonzero" clip-path="url(#f66615452c)"><g clip-rule="nonzero" clip-path="url(#cc45e0eccf)"><path style=" stroke:none;fill-rule:nonzero;fill:#ffffff;fill-opacity:1;" d="M 435.03125 432.195312 L 444.398438 419.65625 L 449.117188 423.183594 L 439.75 435.71875 Z M 435.03125 432.195312 "/></g></g><g clip-rule="nonzero" clip-path="url(#2c6811626e)"><path style=" stroke:none;fill-rule:nonzero;fill:#ffffff;fill-opacity:1;" d="M 418.429688 429.832031 L 439.765625 429.832031 L 439.765625 435.722656 L 418.429688 435.722656 Z M 418.429688 429.832031 "/></g><g style="fill:#ffffff;fill-opacity:1;"><g transform="translate(650.761181, 510.601226)"><path style="stroke:none" d="M 3.140625 0 L 3.140625 -25.609375 L 8.046875 -25.609375 L 8.046875 0 Z M 3.140625 0 "/></g></g><g style="fill:#ffffff;fill-opacity:1;"><g transform="translate(665.495492, 510.601226)"><path style="stroke:none" d="M 21 -7.9375 L 21 -25.609375 L 25.75 -25.609375 L 25.75 0 L 21.109375 0 L 7.9375 -17.625 L 7.9375 0 L 3.140625 0 L 3.140625 -25.609375 L 7.796875 -25.609375 Z M 21 -7.9375 "/></g></g><g style="fill:#ffffff;fill-opacity:1;"><g transform="translate(697.92361, 510.601226)"><path style="stroke:none" d="M 3.140625 0 L 3.140625 -25.609375 L 8.734375 -25.609375 L 17.234375 -9.109375 L 25.640625 -25.609375 L 31.234375 -25.609375 L 31.234375 0 L 26.734375 0 L 26.734375 -18.359375 L 18.765625 -2.640625 L 15.625 -2.640625 L 7.609375 -18.359375 L 7.609375 0 Z M 3.140625 0 "/></g></g><g style="fill:#ffffff;fill-opacity:1;"><g transform="translate(735.835343, 510.601226)"><path style="stroke:none" d="M 14.78125 -25.9375 C 17.3125 -25.9375 19.617188 -25.363281 21.703125 -24.21875 C 23.796875 -23.070312 25.4375 -21.5 26.625 -19.5 C 27.820312 -17.5 28.421875 -15.28125 28.421875 -12.84375 C 28.421875 -10.40625 27.820312 -8.175781 26.625 -6.15625 C 25.4375 -4.144531 23.796875 -2.554688 21.703125 -1.390625 C 19.617188 -0.222656 17.3125 0.359375 14.78125 0.359375 C 12.238281 0.359375 9.925781 -0.222656 7.84375 -1.390625 C 5.757812 -2.554688 4.117188 -4.144531 2.921875 -6.15625 C 1.734375 -8.175781 1.140625 -10.40625 1.140625 -12.84375 C 1.140625 -15.28125 1.734375 -17.5 2.921875 -19.5 C 4.117188 -21.5 5.757812 -23.070312 7.84375 -24.21875 C 9.925781 -25.363281 12.238281 -25.9375 14.78125 -25.9375 Z M 14.84375 -21.546875 C 13.289062 -21.546875 11.84375 -21.160156 10.5 -20.390625 C 9.15625 -19.617188 8.09375 -18.566406 7.3125 -17.234375 C 6.53125 -15.910156 6.140625 -14.445312 6.140625 -12.84375 C 6.140625 -11.226562 6.535156 -9.75 7.328125 -8.40625 C 8.117188 -7.070312 9.179688 -6.015625 10.515625 -5.234375 C 11.847656 -4.453125 13.289062 -4.0625 14.84375 -4.0625 C 16.382812 -4.0625 17.8125 -4.453125 19.125 -5.234375 C 20.445312 -6.015625 21.488281 -7.070312 22.25 -8.40625 C 23.019531 -9.75 23.40625 -11.226562 23.40625 -12.84375 C 23.40625 -14.445312 23.019531 -15.910156 22.25 -17.234375 C 21.488281 -18.566406 20.445312 -19.617188 19.125 -20.390625 C 17.8125 -21.160156 16.382812 -21.546875 14.84375 -21.546875 Z M 14.84375 -21.546875 "/></g></g><g style="fill:#ffffff;fill-opacity:1;"><g transform="translate(768.958057, 510.601226)"><path style="stroke:none" d="M 14.515625 -25.609375 C 17.253906 -25.609375 19.410156 -25.035156 20.984375 -23.890625 C 22.554688 -22.742188 23.34375 -21.179688 23.34375 -19.203125 C 23.34375 -17.785156 22.941406 -16.570312 22.140625 -15.5625 C 21.347656 -14.550781 20.257812 -13.875 18.875 -13.53125 C 20.582031 -13.21875 21.914062 -12.488281 22.875 -11.34375 C 23.84375 -10.195312 24.328125 -8.769531 24.328125 -7.0625 C 24.328125 -4.863281 23.476562 -3.132812 21.78125 -1.875 C 20.082031 -0.625 17.769531 0 14.84375 0 L 3.140625 0 L 3.140625 -25.609375 Z M 14.265625 -15.140625 C 15.535156 -15.140625 16.53125 -15.421875 17.25 -15.984375 C 17.96875 -16.546875 18.328125 -17.328125 18.328125 -18.328125 C 18.328125 -19.296875 17.96875 -20.046875 17.25 -20.578125 C 16.53125 -21.117188 15.535156 -21.378906 14.265625 -21.359375 L 8.046875 -21.359375 L 8.046875 -15.140625 Z M 14.265625 -4.25 C 15.828125 -4.21875 17.046875 -4.503906 17.921875 -5.109375 C 18.796875 -5.722656 19.234375 -6.582031 19.234375 -7.6875 C 19.234375 -8.726562 18.796875 -9.546875 17.921875 -10.140625 C 17.046875 -10.742188 15.828125 -11.035156 14.265625 -11.015625 L 8.046875 -11.015625 L 8.046875 -4.25 Z M 14.265625 -4.25 "/></g></g><g style="fill:#ffffff;fill-opacity:1;"><g transform="translate(798.425028, 510.601226)"><path style="stroke:none" d="M 3.140625 0 L 3.140625 -25.609375 L 8.046875 -25.609375 L 8.046875 0 Z M 3.140625 0 "/></g></g><g style="fill:#ffffff;fill-opacity:1;"><g transform="translate(813.159339, 510.601226)"><path style="stroke:none" d="M 3.140625 0 L 3.140625 -25.609375 L 8.046875 -25.609375 L 8.046875 -4.421875 L 19.09375 -4.421875 L 19.09375 0 Z M 3.140625 0 "/></g></g><g style="fill:#ffffff;fill-opacity:1;"><g transform="translate(836.484663, 510.601226)"><path style="stroke:none" d="M 3.140625 0 L 3.140625 -25.609375 L 8.046875 -25.609375 L 8.046875 0 Z M 3.140625 0 "/></g></g><g style="fill:#ffffff;fill-opacity:1;"><g transform="translate(851.218974, 510.601226)"><path style="stroke:none" d="M 27.359375 0 L 22.09375 0 L 19.828125 -5.40625 L 7.3125 -5.40625 L 5.046875 0 L -0.03125 0 L 11.1875 -25.609375 L 16.28125 -25.609375 Z M 13.609375 -20.375 L 9.078125 -9.625 L 18.0625 -9.625 Z M 13.609375 -20.375 "/></g></g><g style="fill:#ffffff;fill-opacity:1;"><g transform="translate(882.075137, 510.601226)"><path style="stroke:none" d="M 24.765625 0 L 19.171875 0 L 14.734375 -7.578125 C 14.546875 -7.546875 14.242188 -7.53125 13.828125 -7.53125 L 8.046875 -7.53125 L 8.046875 0 L 3.140625 0 L 3.140625 -25.609375 L 13.828125 -25.609375 C 17.140625 -25.609375 19.695312 -24.835938 21.5 -23.296875 C 23.3125 -21.765625 24.21875 -19.597656 24.21875 -16.796875 C 24.21875 -14.796875 23.785156 -13.085938 22.921875 -11.671875 C 22.054688 -10.253906 20.789062 -9.191406 19.125 -8.484375 Z M 8.046875 -21.328125 L 8.046875 -11.84375 L 13.828125 -11.84375 C 15.679688 -11.84375 17.09375 -12.242188 18.0625 -13.046875 C 19.039062 -13.859375 19.53125 -15.054688 19.53125 -16.640625 C 19.53125 -18.203125 19.039062 -19.375 18.0625 -20.15625 C 17.09375 -20.9375 15.679688 -21.328125 13.828125 -21.328125 Z M 8.046875 -21.328125 "/></g></g><g style="fill:#ffffff;fill-opacity:1;"><g transform="translate(912.053914, 510.601226)"><path style="stroke:none" d="M 3.140625 0 L 3.140625 -25.609375 L 8.046875 -25.609375 L 8.046875 0 Z M 3.140625 0 "/></g></g><g style="fill:#ffffff;fill-opacity:1;"><g transform="translate(926.788225, 510.601226)"><path style="stroke:none" d="M 27.359375 0 L 22.09375 0 L 19.828125 -5.40625 L 7.3125 -5.40625 L 5.046875 0 L -0.03125 0 L 11.1875 -25.609375 L 16.28125 -25.609375 Z M 13.609375 -20.375 L 9.078125 -9.625 L 18.0625 -9.625 Z M 13.609375 -20.375 "/></g></g><g style="fill:#ffffff;fill-opacity:1;"><g transform="translate(653.563678, 445.713432)"><path style="stroke:none" d="M 64.796875 -66.5 L 64.796875 0 L 46.3125 0 L 46.3125 -26.6875 L 23.765625 -26.6875 L 23.765625 0 L 5.28125 0 L 5.28125 -66.5 L 23.765625 -66.5 L 23.765625 -41.5 L 46.3125 -41.5 L 46.3125 -66.5 Z M 64.796875 -66.5 "/></g></g><g style="fill:#ffffff;fill-opacity:1;"><g transform="translate(723.647, 445.713432)"><path style="stroke:none" d="M 47.359375 -10.84375 L 23.765625 -10.84375 L 20.1875 0 L 0.75 0 L 25 -66.5 L 46.3125 -66.5 L 70.46875 0 L 50.9375 0 Z M 42.734375 -25 L 35.5625 -46.5 L 28.484375 -25 Z M 42.734375 -25 "/></g></g><g style="fill:#ffffff;fill-opacity:1;"><g transform="translate(794.862207, 445.713432)"><path style="stroke:none" d="M 47.734375 -34.140625 C 51.628906 -33.265625 54.722656 -31.332031 57.015625 -28.34375 C 59.316406 -25.351562 60.46875 -21.941406 60.46875 -18.109375 C 60.46875 -12.453125 58.515625 -8.019531 54.609375 -4.8125 C 50.710938 -1.601562 45.242188 0 38.203125 0 L 5.28125 0 L 5.28125 -66.5 L 37.171875 -66.5 C 43.960938 -66.5 49.289062 -64.988281 53.15625 -61.96875 C 57.019531 -58.957031 58.953125 -54.710938 58.953125 -49.234375 C 58.953125 -45.335938 57.929688 -42.082031 55.890625 -39.46875 C 53.847656 -36.863281 51.128906 -35.085938 47.734375 -34.140625 Z M 23.765625 -40.09375 L 33.109375 -40.09375 C 37.765625 -40.09375 40.09375 -42.007812 40.09375 -45.84375 C 40.09375 -49.800781 37.765625 -51.78125 33.109375 -51.78125 L 23.765625 -51.78125 Z M 34.53125 -14.90625 C 39.175781 -14.90625 41.5 -16.851562 41.5 -20.75 C 41.5 -22.757812 40.882812 -24.300781 39.65625 -25.375 C 38.4375 -26.445312 36.695312 -26.984375 34.4375 -26.984375 L 23.765625 -26.984375 L 23.765625 -14.90625 Z M 34.53125 -14.90625 "/></g></g><g style="fill:#ffffff;fill-opacity:1;"><g transform="translate(858.15413, 445.713432)"><path style="stroke:none" d="M 23.765625 -66.5 L 23.765625 0 L 5.28125 0 L 5.28125 -66.5 Z M 23.765625 -66.5 "/></g></g><g style="fill:#ffffff;fill-opacity:1;"><g transform="translate(887.206151, 445.713432)"><path style="stroke:none" d="M 55.375 -66.5 L 55.375 -51.78125 L 37.640625 -51.78125 L 37.640625 0 L 19.15625 0 L 19.15625 -51.78125 L 1.609375 -51.78125 L 1.609375 -66.5 Z M 55.375 -66.5 "/></g></g><g style="fill:#ffffff;fill-opacity:1;"><g transform="translate(944.17831, 445.713432)"><path style="stroke:none" d="M 23.765625 -51.6875 L 23.765625 -40.84375 L 45 -40.84375 L 45 -26.796875 L 23.765625 -26.796875 L 23.765625 -14.8125 L 47.828125 -14.8125 L 47.828125 0 L 5.28125 0 L 5.28125 -66.5 L 47.828125 -66.5 L 47.828125 -51.6875 Z M 23.765625 -51.6875 "/></g></g><g style="fill:#ffffff;fill-opacity:1;"><g transform="translate(995.868299, 445.713432)"><path style="stroke:none" d="M 3.015625 -33.390625 C 3.015625 -39.929688 4.378906 -45.765625 7.109375 -50.890625 C 9.847656 -56.015625 13.734375 -60.003906 18.765625 -62.859375 C 23.796875 -65.722656 29.582031 -67.15625 36.125 -67.15625 C 44.425781 -67.15625 51.40625 -64.9375 57.0625 -60.5 C 62.726562 -56.070312 66.378906 -50.054688 68.015625 -42.453125 L 48.109375 -42.453125 C 46.910156 -44.960938 45.257812 -46.878906 43.15625 -48.203125 C 41.050781 -49.523438 38.613281 -50.1875 35.84375 -50.1875 C 31.570312 -50.1875 28.160156 -48.660156 25.609375 -45.609375 C 23.066406 -42.554688 21.796875 -38.484375 21.796875 -33.390625 C 21.796875 -28.234375 23.066406 -24.128906 25.609375 -21.078125 C 28.160156 -18.023438 31.570312 -16.5 35.84375 -16.5 C 38.613281 -16.5 41.050781 -17.160156 43.15625 -18.484375 C 45.257812 -19.804688 46.910156 -21.726562 48.109375 -24.25 L 68.015625 -24.25 C 66.378906 -16.632812 62.726562 -10.609375 57.0625 -6.171875 C 51.40625 -1.742188 44.425781 0.46875 36.125 0.46875 C 29.582031 0.46875 23.796875 -0.957031 18.765625 -3.8125 C 13.734375 -6.675781 9.847656 -10.671875 7.109375 -15.796875 C 4.378906 -20.921875 3.015625 -26.785156 3.015625 -33.390625 Z M 3.015625 -33.390625 "/></g></g><g style="fill:#ffffff;fill-opacity:1;"><g transform="translate(974.036764, 508.179216)"><path style="stroke:none" d="M 15.84375 -15.65625 C 14.757812 -16.320312 13.648438 -16.832031 12.515625 -17.1875 C 11.378906 -17.550781 10.378906 -17.734375 9.515625 -17.734375 C 8.546875 -17.734375 7.78125 -17.550781 7.21875 -17.1875 C 6.664062 -16.832031 6.390625 -16.332031 6.390625 -15.6875 C 6.390625 -15.101562 6.582031 -14.613281 6.96875 -14.21875 C 7.363281 -13.832031 7.851562 -13.515625 8.4375 -13.265625 C 9.03125 -13.015625 9.84375 -12.738281 10.875 -12.4375 C 12.289062 -12.007812 13.457031 -11.582031 14.375 -11.15625 C 15.289062 -10.738281 16.066406 -10.117188 16.703125 -9.296875 C 17.347656 -8.472656 17.671875 -7.390625 17.671875 -6.046875 C 17.671875 -4.765625 17.320312 -3.644531 16.625 -2.6875 C 15.9375 -1.738281 14.984375 -1.015625 13.765625 -0.515625 C 12.554688 -0.015625 11.171875 0.234375 9.609375 0.234375 C 7.960938 0.234375 6.351562 -0.0664062 4.78125 -0.671875 C 3.21875 -1.285156 1.851562 -2.101562 0.6875 -3.125 L 2.375 -6.5625 C 3.4375 -5.582031 4.628906 -4.8125 5.953125 -4.25 C 7.285156 -3.6875 8.523438 -3.40625 9.671875 -3.40625 C 10.785156 -3.40625 11.664062 -3.617188 12.3125 -4.046875 C 12.957031 -4.484375 13.28125 -5.070312 13.28125 -5.8125 C 13.28125 -6.414062 13.082031 -6.910156 12.6875 -7.296875 C 12.300781 -7.691406 11.804688 -8.007812 11.203125 -8.25 C 10.597656 -8.488281 9.773438 -8.757812 8.734375 -9.0625 C 7.304688 -9.476562 6.140625 -9.890625 5.234375 -10.296875 C 4.335938 -10.703125 3.566406 -11.3125 2.921875 -12.125 C 2.273438 -12.9375 1.953125 -14.003906 1.953125 -15.328125 C 1.953125 -16.546875 2.28125 -17.613281 2.9375 -18.53125 C 3.59375 -19.445312 4.515625 -20.15625 5.703125 -20.65625 C 6.898438 -21.15625 8.28125 -21.40625 9.84375 -21.40625 C 11.207031 -21.40625 12.554688 -21.203125 13.890625 -20.796875 C 15.222656 -20.398438 16.414062 -19.863281 17.46875 -19.1875 Z M 15.84375 -15.65625 "/></g></g><g style="fill:#ffffff;fill-opacity:1;"><g transform="translate(995.859833, 508.179216)"><path style="stroke:none" d="M 3.375 -4.0625 C 3.976562 -4.0625 4.472656 -3.859375 4.859375 -3.453125 C 5.253906 -3.054688 5.453125 -2.546875 5.453125 -1.921875 C 5.453125 -1.285156 5.253906 -0.757812 4.859375 -0.34375 C 4.472656 0.0625 3.976562 0.265625 3.375 0.265625 C 2.789062 0.265625 2.300781 0.0546875 1.90625 -0.359375 C 1.519531 -0.785156 1.328125 -1.304688 1.328125 -1.921875 C 1.328125 -2.546875 1.519531 -3.054688 1.90625 -3.453125 C 2.300781 -3.859375 2.789062 -4.0625 3.375 -4.0625 Z M 3.375 -4.0625 "/></g></g><g style="fill:#ffffff;fill-opacity:1;"><g transform="translate(1005.553226, 508.179216)"><path style="stroke:none" d="M 22.515625 0 L 18.1875 0 L 16.3125 -4.453125 L 6.015625 -4.453125 L 4.15625 0 L -0.03125 0 L 9.21875 -21.078125 L 13.40625 -21.078125 Z M 11.203125 -16.765625 L 7.46875 -7.921875 L 14.875 -7.921875 Z M 11.203125 -16.765625 "/></g></g><g style="fill:#ffffff;fill-opacity:1;"><g transform="translate(1030.958001, 508.179216)"><path style="stroke:none" d="M 3.375 -4.0625 C 3.976562 -4.0625 4.472656 -3.859375 4.859375 -3.453125 C 5.253906 -3.054688 5.453125 -2.546875 5.453125 -1.921875 C 5.453125 -1.285156 5.253906 -0.757812 4.859375 -0.34375 C 4.472656 0.0625 3.976562 0.265625 3.375 0.265625 C 2.789062 0.265625 2.300781 0.0546875 1.90625 -0.359375 C 1.519531 -0.785156 1.328125 -1.304688 1.328125 -1.921875 C 1.328125 -2.546875 1.519531 -3.054688 1.90625 -3.453125 C 2.300781 -3.859375 2.789062 -4.0625 3.375 -4.0625 Z M 3.375 -4.0625 "/></g></g><g style="fill:#ffffff;fill-opacity:1;"><g transform="translate(1040.651394, 508.179216)"><path style="stroke:none" d="M 17.859375 -15 C 17.109375 -15.863281 16.226562 -16.535156 15.21875 -17.015625 C 14.207031 -17.492188 13.179688 -17.734375 12.140625 -17.734375 C 10.828125 -17.734375 9.628906 -17.421875 8.546875 -16.796875 C 7.460938 -16.179688 6.609375 -15.320312 5.984375 -14.21875 C 5.367188 -13.125 5.0625 -11.925781 5.0625 -10.625 C 5.0625 -9.320312 5.367188 -8.125 5.984375 -7.03125 C 6.609375 -5.9375 7.460938 -5.070312 8.546875 -4.4375 C 9.628906 -3.8125 10.828125 -3.5 12.140625 -3.5 C 13.140625 -3.5 14.144531 -3.71875 15.15625 -4.15625 C 16.175781 -4.59375 17.078125 -5.203125 17.859375 -5.984375 L 20.234375 -3.34375 C 19.128906 -2.21875 17.84375 -1.328125 16.375 -0.671875 C 14.914062 -0.0234375 13.429688 0.296875 11.921875 0.296875 C 9.890625 0.296875 8.03125 -0.179688 6.34375 -1.140625 C 4.664062 -2.109375 3.34375 -3.421875 2.375 -5.078125 C 1.414062 -6.734375 0.9375 -8.5625 0.9375 -10.5625 C 0.9375 -12.570312 1.425781 -14.398438 2.40625 -16.046875 C 3.394531 -17.691406 4.734375 -18.984375 6.421875 -19.921875 C 8.117188 -20.867188 10.003906 -21.34375 12.078125 -21.34375 C 13.578125 -21.34375 15.050781 -21.039062 16.5 -20.4375 C 17.945312 -19.84375 19.179688 -19.007812 20.203125 -17.9375 Z M 17.859375 -15 "/></g></g><g style="fill:#ffffff;fill-opacity:1;"><g transform="translate(1064.521145, 508.179216)"><path style="stroke:none" d="M 3.375 -4.0625 C 3.976562 -4.0625 4.472656 -3.859375 4.859375 -3.453125 C 5.253906 -3.054688 5.453125 -2.546875 5.453125 -1.921875 C 5.453125 -1.285156 5.253906 -0.757812 4.859375 -0.34375 C 4.472656 0.0625 3.976562 0.265625 3.375 0.265625 C 2.789062 0.265625 2.300781 0.0546875 1.90625 -0.359375 C 1.519531 -0.785156 1.328125 -1.304688 1.328125 -1.921875 C 1.328125 -2.546875 1.519531 -3.054688 1.90625 -3.453125 C 2.300781 -3.859375 2.789062 -4.0625 3.375 -4.0625 Z M 3.375 -4.0625 "/></g></g></g></svg>